# xmcd
#
# Track frame offsets: 
#        150
#        16752
#        33322
#        53447
#        70861
#        81741
#        106214
#        119437
#        134411
#        146816
#        161761
#        179580
#
# Disc length: 2670 seconds
#
# Revision: 0
# Processed by: cddbd v1.5.1PL0 Copyright (c) Steve Scherf et al.
# Submitted via: ExactAudioCopy v0.95a4
#
DISCID=a80a6c0c
DTITLE=Nitty Gritty Dirt Band - Welcome To Woody Creek
DYEAR=2004
DGENRE=Country
TTITLE0=Walkin' In The Sunshine
TTITLE1=Forever Don't Last
TTITLE2=Jealous Moon
TTITLE3=It's Morning
TTITLE4=Get Back
TTITLE5=She
TTITLE6=Safe Back Home
TTITLE7=Party On The Mountain
TTITLE8=Any Love But Our Love
TTITLE9=It's A New Day
TTITLE10=Old Time's Sake
TTITLE11=Midnight At Woody Creek
EXTD=
EXTT0=
EXTT1=
EXTT2=
EXTT3=
EXTT4=
EXTT5=
EXTT6=
EXTT7=
EXTT8=
EXTT9=
EXTT10=
EXTT11=
PLAYORDER=
